<?xml version="1.0" encoding="UTF-8" standalone="no"?>
<svg
   xmlns:dc="http://purl.org/dc/elements/1.1/"
   xmlns:cc="http://creativecommons.org/ns#"
   xmlns:rdf="http://www.w3.org/1999/02/22-rdf-syntax-ns#"
   xmlns:svg="http://www.w3.org/2000/svg"
   xmlns="http://www.w3.org/2000/svg"
   xmlns:sodipodi="http://sodipodi.sourceforge.net/DTD/sodipodi-0.dtd"
   xmlns:inkscape="http://www.inkscape.org/namespaces/inkscape"
   height="16"
   viewBox="0 0 16 16"
   width="16"
   id="svg2"
   version="1.1"
   inkscape:version="0.92.2 2405546, 2018-03-11"
   sodipodi:docname="type-book.svg"
   style="fill:#000000">
  <metadata
     id="metadata14">
    <rdf:RDF>
      <cc:Work
         rdf:about="">
        <dc:format>image/svg+xml</dc:format>
        <dc:type
           rdf:resource="http://purl.org/dc/dcmitype/StillImage" />
        <dc:title></dc:title>
      </cc:Work>
    </rdf:RDF>
  </metadata>
  <defs
     id="defs12">
    <inkscape:path-effect
       effect="bspline"
       id="path-effect1729"
       is_visible="true"
       weight="33.333333"
       steps="2"
       helper_size="0"
       apply_no_weight="true"
       apply_with_weight="true"
       only_selected="false" />
    <inkscape:perspective
       inkscape:vp_z="64 : 64.000008 : 1"
       inkscape:vp_y="0 : 1000 : 0"
       inkscape:vp_x="0 : 64.000008 : 1"
       sodipodi:type="inkscape:persp3d"
       id="perspective3924"
       inkscape:persp3d-origin="32 : 42.666672 : 1" />
  </defs>
  <sodipodi:namedview
     pagecolor="#ffffff"
     bordercolor="#666666"
     borderopacity="1"
     objecttolerance="10"
     gridtolerance="10"
     guidetolerance="10"
     inkscape:pageopacity="0"
     inkscape:pageshadow="2"
     inkscape:window-width="1610"
     inkscape:window-height="783"
     id="namedview10"
     showgrid="false"
     inkscape:zoom="12.81631"
     inkscape:cx="-9.8789214"
     inkscape:cy="8.2361674"
     inkscape:window-x="36"
     inkscape:window-y="99"
     inkscape:window-maximized="0"
     inkscape:current-layer="svg2" />
  <circle
     style="opacity:0.98999999;fill:#02a24b;fill-opacity:1;stroke:none;stroke-width:0.5;stroke-linecap:round;stroke-linejoin:bevel;stroke-miterlimit:4;stroke-dasharray:none;stroke-dashoffset:3.29999995;stroke-opacity:1;paint-order:stroke fill markers"
     id="path8336"
     cx="8"
     cy="8.000001"
     r="8" />
  <g
     id="g8682"
     transform="translate(-0.03028005,-0.1454629)">
    <path
       style="fill:#ffffff;fill-opacity:1;stroke-width:0.99999821"
       id="path8621"
       d="M 12.939371,3.7818251 C 12.333916,3.590916 11.668462,3.5090978 11.03028,3.5090978 c -1.0636362,0 -2.2090908,0.2181818 -2.9999999,0.8181818 -0.7909091,-0.6 -1.9363637,-0.8181818 -3,-0.8181818 -1.0636364,0 -2.209091,0.2181818 -3,0.8181818 v 7.9909094 c 0,0.136363 0.1363636,0.272727 0.2727272,0.272727 0.054546,0 0.081818,-0.02727 0.1363637,-0.02727 0.7363636,-0.354545 1.8,-0.6 2.5909091,-0.6 1.0636363,0 2.2090909,0.218182 3,0.818182 0.7363636,-0.463636 2.0727269,-0.818182 2.9999999,-0.818182 0.9,0 1.827273,0.163637 2.590909,0.572728 0.05455,0.02727 0.08182,0.02727 0.136364,0.02727 0.136364,0 0.272727,-0.136363 0.272727,-0.272727 V 4.3272796 C 13.703007,4.0818251 13.348462,3.9181887 12.939371,3.7818251 Z m 0,7.3636359 c -0.6,-0.190909 -1.254545,-0.272727 -1.909091,-0.272727 -0.927273,0 -2.2636363,0.354546 -2.9999999,0.818182 V 5.4181887 C 8.7666437,4.9545523 10.103007,4.6000069 11.03028,4.6000069 c 0.654546,0 1.309091,0.081818 1.909091,0.2727272 z"
       inkscape:connector-curvature="0" />
    <g
       transform="matrix(0.54545455,0,0,0.54545455,1.4848255,1.0545523)"
       style="fill:#ffffff;fill-opacity:1;stroke-width:1.83333004"
       id="g8629">
      <path
         style="fill:#ffffff;fill-opacity:1;stroke-width:1.83333004"
         id="path8623"
         d="m 17.5,10.5 c 0.88,0 1.73,0.09 2.5,0.26 V 9.24 C 19.21,9.09 18.36,9 17.5,9 15.8,9 14.26,9.29 13,9.83 v 1.66 c 1.13,-0.64 2.7,-0.99 4.5,-0.99 z"
         inkscape:connector-curvature="0" />
      <path
         style="fill:#ffffff;fill-opacity:1;stroke-width:1.83333004"
         id="path8625"
         d="m 13,12.49 v 1.66 c 1.13,-0.64 2.7,-0.99 4.5,-0.99 0.88,0 1.73,0.09 2.5,0.26 V 11.9 c -0.79,-0.15 -1.64,-0.24 -2.5,-0.24 -1.7,0 -3.24,0.3 -4.5,0.83 z"
         inkscape:connector-curvature="0" />
      <path
         style="fill:#ffffff;fill-opacity:1;stroke-width:1.83333004"
         id="path8627"
         d="m 17.5,14.33 c -1.7,0 -3.24,0.29 -4.5,0.83 v 1.66 c 1.13,-0.64 2.7,-0.99 4.5,-0.99 0.88,0 1.73,0.09 2.5,0.26 v -1.52 c -0.79,-0.16 -1.64,-0.24 -2.5,-0.24 z"
         inkscape:connector-curvature="0" />
    </g>
  </g>
</svg>
