<?xml version="1.0" encoding="utf-8"?>
<!-- Generator: Adobe Illustrator 16.0.4, SVG Export Plug-In . SVG Version: 6.00 Build 0)  -->
<!DOCTYPE svg PUBLIC "-//W3C//DTD SVG 1.1//EN" "http://www.w3.org/Graphics/SVG/1.1/DTD/svg11.dtd">
<svg version="1.1" id="Layer_1" xmlns="http://www.w3.org/2000/svg" xmlns:xlink="http://www.w3.org/1999/xlink" x="0px" y="0px"
	 width="830px" height="830px" viewBox="0 0 830 830" enable-background="new 0 0 830 830" xml:space="preserve">
<rect x="0" y="166" fill="#00B140" width="830" height="498"/>
<rect x="0" y="166" fill="#FFFFFF" width="830" height="249"/>
<g transform="translate(1.72,0.97)">
	<path fill="#C8102E" stroke="#000000" stroke-width="1.8" d="M541.562,194.563c-0.011,0.019-0.019,0.043-0.031,0.062
		c0.033-0.019,0.062-0.045,0.095-0.062H541.562z M541.53,194.625c-52.241,28.887-99.002,58.944-144.969,97.25
		c-22.06,19.27-15.833,34.631-16.687,51.937c0.711,11.618-2.511,22.426-9.656,28.938c-16.35,3.306-32.715,6.632-49.062,9.938
		c-1.566-4.524-3.121-9.042-4.688-13.562c1.495-6.94,7.232-10.353,19.312-6c0.951-8.924-6.228-12.556-14.625-15.656
		c-2.886-2.246-6.469-3.972-6-11.688c-1.412-17.467,26.614,1.25,26.875,1.25s-0.935-17.627-13.812-21.155
		c-7.022-2.485-9.994-9.893-7.312-15.375c5.617-11.209,16.193,0.878,24.281,1.312c-0.304-7.316-2.387-12.531-8.688-18.437
		c-3.393-2.088-11.723-3.657-11.938-7.156c-0.176-4.752,7.809-6.784,18.782-5.469c-2.288-6.66-9.668-10.969-19.812-14.095
		c-2-3.479-4-6.958-6-10.437c-2.842-5.261-4.115-5.402,2.469-15.375c5.915-3.827,13.773-9.237,19.688-13.063
		c-2.176-0.261-4.356-0.52-6.531-0.78c0.868-7.132,0.969-9.531,2.625-21.375c-6.347,8.671-14.275,7.121-21.406,10.688
		c0,0-20.33,3.608-26.875,12.25c-0.261,0-51.125-2.594-51.125-2.594c-10.84,1.509-20.099,4.582-21.906,15.125
		c-24.792,2.502-50.755,0.288-69.656,24c12.869-0.609,24.136-3.674,38.594-1.813c0,0,12.32,0.233,14.875,13.281
		c0.261,0.522,4.188,0.532,4.188,0.532c1.566,1.217,3.121,2.438,4.688,3.656c0.608-1.652,1.204-3.317,1.812-4.97
		c1.393,0.957,2.795,1.918,4.188,2.875c0.434-1.826,0.879-3.642,1.312-5.468c1.393,0.956,2.765,1.918,4.156,2.874
		c0.087-2.174,0.195-4.356,0.281-6.531c1.827,1.305,3.643,2.603,5.469,3.907v-8.594c0,0,20.192-0.048,26.344,12.781
		c0.263,0.261-56.665,10.463-111.656,5.75c5.306-2.609,10.602-5.235,15.906-7.845c-20.05-4.076-38.9-7.761-56.594-21.655
		c6.677,25.137,41.181,54.662,48.25,54.53c0,0.262-6.781-12.25-6.781-12.25c19.916,0.87,39.835,1.726,59.75,2.595
		c2.175,6.609,1.213,14.02,6.531,19.844c0,0-3.299,10.925,4.031,15.375c0.262,0.521,8.75-22.157,8.75-22.157s2.6,6.101,5.219,10.157
		c3.795-19.508,25.031-22.688,25.031-22.688s4.438,10.176,4.438,10.438c-6.636,0.96-14.89,14.485-10.438,21.906
		c-4.45,0.085-12.352,13.186-9.906,20.344c-3.741,3.723-13.058,8.686-10.688,24.281c-7.334,1.571-11.677,14.99-9.406,29.219
		c-11.35,10.563-8.563,29.956,1.562,37.812c-4.203,3.74-6.791,6.616-6.78,11.22c-3.996-1.485-7.681-0.244-9.407,2.375
		c-4.898-5.021-11.932-9.419-16.938-4.72c-1.296-5.939-9.031-12.474-17.5-11.718c0.496-6.264-2.755-14.018-11.719-16.719
		c0,0-1.813-29.358-10.719-38.875c-0.873-5.326,0.51-8.948,7.844-13.313c7.323-3.905,8.879-6.935,8.344-18
		c2.888-7.396,5.08-14.936-3.905-20.062c0.27,8.795-2.431,13.031-6,16.937c-4.267-0.621-5.757,4.358-8.626,6.532
		c-4.017-5.414,8.472-13.799-0.781-25.844c-0.521-0.523-6.459-15.724-21.125-15.375c6.971,4.082,9.92,10.951,9.906,18
		c-4.624,13.045-6.974,23.127-2.344,38.093c-6.093-9.128-9.549-26.482-14.594-29.5c-4.422-0.862-6.582-11.321-23.75-8.343
		c7.405,1.992,9.757,7.646,11.75,12.781c-4.541,2.342-2.285,8.519,1.031,12.78c-0.63,10.016,5.37,15.866,14.344,19.595
		c-1.478,13.652-2.96,27.282-4.438,40.937c-3.564-0.454-9.051,13.425-11.219,13.844c-3.488,2.171-9.581,8.011-2.594,9.656
		c-2.076,7.492-4.001,12.009-15.156,13.563c0,0,11.787,6.99,21.562-4.97c10.474-0.262,7.029-12.752,12.094-18.25
		c0-0.26,2.874-2.065,7.062-13.062c1.831,9.818,11.907,39.888,34.688,54.812c19.856,21.256,36.175,41.33,36,69.656
		c7.75-7.208,12.378-18.624,15.938-29.5c10.775-3.748,26.19-5.179,39.937-4.562c-2.358,4.961-4.997,9.721-1.594,12.938
		c-9.593,3.294-11.695,10.256-7.843,17.218c-10.112,6.867-10.778,11.28-10.938,22.688c-18.708,23.984-30.249,23.188-48.781,16.968
		c-6.086-3.572-15.505-8.714-19.844-6c-8.004-5.334-19.512-6.126-21.406,6c6.006-4.978,9.592-4.018,14.375,0.782
		c-0.962,2.436-1.766,4.861,1.812,6.25c-1.566,1.739-3.121,3.479-4.688,5.218c-8.612-1.324-20.193-1.25-23.219,11.219
		c4.424-3.665,14.24-4.524,22.156-1.03c1.479,0.521,2.959,1.04,4.438,1.562c0.174,2,0.358,4,0.531,6c0,0-11.732-1.811-14.875,17.219
		c11-11.701,18.781-8.625,18.781-8.625c4.238,6.205,19.841,5.271,31.062-4.937c15.763-8.812,20.357,3.851,30.531-4.438
		c8.436-6.292,18.417-2.107,25.281,5.22c7.915,2.969,16.2,5.413,22.719,0c0,0,7.963-5.081,15.906,3.125
		c0.087-9.253-6.47-14.169-15.375-14.345l-2.625-2.625c-8.35-1.739-17.73-1.033-25.031-5.218
		c3.442-13.066,8.457-24.904,18.25-34.969c12.088-12.958,20.987-18.851,36.25-38.688c-0.589,11.211,8.003,23.678,12.531,35.063
		c0,0,9.115-14.556,10.438-26.375c0.26,0,11.423-5.811,16.188-10.75c10.056,6.236,26.445-4.994,37.031-14.281
		c6.524,2.47,11.479,2.292,19.062,0c-6.088,12.39,3.521,23.883,18.781,28.688c1.411,10.938,12.459,13.229,29.219,13.312
		c0.706,6.436,10.688,7.312,10.688,7.312c-6.308,2.939-9.596,5.886-9.376,12.53c-6.464,0.044-11.359,1.671-13.062,9.125
		c-8.876,0.152-17.922,0.833-25.562,5.22c-8.176-1.27-18.122-4.657-24.531-11.22c-3.307-2.783-4.132-6.796-9.906-8.344
		c-3.66-4.326-8.039-3.36-9.406,0.782c-3.783-2.955-17.972-4.328-20.344,9.125c6.624-4.849,12.563-6.696,16.719-0.781
		c-2.264,4.106,5.516,6.455,12.25,8.093c4.776,0.296,13.247,4.647,15.906,12c-6.16,1.869-15.496,1.253-21.656-3.405
		c-5.476-4.582-12.872-4.036-16.938-1.031c-5.641-3.597-19.071,3.192-19.594,14.062c5.658-5.185,10.808-7.691,15.938-4.406
		c-2.553,0.605-1.583,0.854-1.313,2.344c4.349,2.521,8.685,5.04,13.032,7.562c-6.394,1.687-12.405,4.237-9.625,16.155
		c0,0,5.208-10.296,16.938-6.5c0.261-0.26,1.616,3.679,4.969,1.032c5.076-5.776,16.682-8.362,26.875-9.375
		c8.18-0.977,16.347-3.387,23.469,1.281c6.341-3.262,13.401-5.456,20.625-0.25c8.523,2.695,14.746,12.631,25.562,8.094
		c5.379-3.723,11.989-3.912,18.781,3.656c0.082-9.543-7.068-12.742-17.219-14.875c-2.349-1.394-4.683-2.795-7.031-4.188
		c-6.521-0.958-13.071,0.198-19.594-2.876c34.134-8.824,58.062-27.859,74.906-55.031c5.392,1.913,10.764,3.806,16.156,5.72
		c3.824,0.244,4.116,1.573,12,3.938c0.297-11.614-4.689-23.578-25.563-24.782l-27.406-10.437
		c-5.817-6.136-8.446-19.152-1.031-26.875c7.258-6.463,8.524-5.689,13.312-13.563c5.822-0.529,11.31,5.469,16.687,5.469
		c2.555,7.588,17.274,14.295,26.625,12c5.859,5.188,17.009,8.07,29.22,3.906c6.93,6.067,15.959,8.601,26.594,3.906
		c2.823,2.824,8.783,5.069,15.656,3.657c0.521,0,3.473,7.541,10.969,10.187c-3.268,3.176-1.259,16.966,2.093,21.906
		c-2.288,5.302-3.008,10.958-1.062,16.438c-7.56,4.859-9.099,8.475-5.72,16.688c-9.898,15.906-21.74,17.724-32.875,12.812
		c-4.002-2.522-7.997-5.071-12-7.595c-4.261-4.175-8.52-8.325-12.78-12.5c-2.17-2.037-6.66-2.677-7.595,1.813
		c0,0-16.398-3.658-17.719,10.187c6.798-6.62,16.438-0.792,16.438-0.53c0,0.261-2.296,1.822-0.531,4.469
		c0.397-0.331,11.973,4.319,22.281,8.75c5.6,2.122,6.831,2.786,9.28,4.094c-2.685-1.23-5.857-2.623-9.28-4.094
		c-6.275-2.379-12.388-4.279-14.188-3.813c-5.84-0.545-12.033-1.27-14.874,3.125c-6.277,2.656-16.084,4.783-15.657,16.438
		c4.239-6.94,10.056-6.647,17.47-6c-0.174,0.521-0.326,1.04-0.5,1.562c8.05,3.666,6.522-0.998,14.03-1.688
		c6.277-0.576,15.175,1.672,19.875,3.25c-5.912,1.739-13.953,1.009-17.75,5.219c-0.695,1.393-3.131,0.823-2.062,4.156
		c0,0-11.534-0.298-14.625,15.656c11.728-7.51,20.615-7.281,20.875-7.281c0.261,0,3.656,0.781,3.656,0.781
		s14.084-9.406,14.344-9.406c0.262,0,13.638-5.923,19.812,0.781c5.39,2.648,11.153,2.817,16.72-0.531
		c10.966-4.77,21.23-5.104,31.312,1.594l9.124,5.468c1.305-0.868,2.604-1.755,3.907-2.625c0,0,10.329-2.917,17.906,6.281
		c-3.132-15.914-14.5-16.437-14.5-16.437c-0.87-0.783-1.756-1.562-2.625-2.345c-5.393-2.087-10.765-4.193-16.156-6.28
		c-2.354-5.826-8.268-10.466-2.375-17.47c6.021-29.926,13.218-52.4,1.562-82.719c10.871,4.696,19.006,19.217,32.625,14.094
		c0-12.176-44.821-35.294-79.062-53.875c56.094-2.87,123.51-44.276,97.594-96.906c4.088-12.696,8.162-25.396,12.25-38.094
		c5.771,11.623,17.453,20.483,27.938,24.25c-8.642-16.496-13.601-66.93-8.625-101.75c-22.604,27.922-47.563,52.702-74.095,77.875
		c13.051,3.05,24.453,0.904,37.063-0.656c-3.565,7.306-7.029,14.632-10.594,21.938c-34.474-20.188-74.947-5.038-75.25,21.906
		c1.179,31.42,40.026,35.885,62.437,24.937c-4.441,28.647-70.281,18.094-70.281,18.094c-23.394-8.063-45.612-6.683-70.187-6.5
		c5.106-15.71,33.46-29.651,55.062-23.5c-30.242-33.909,4.275-76.008,45.906-88.969c-45.376-14.966-6.304-49.558,27.657-74.344
		c0,0-97.663,41.101-106.563,40.969C523.377,245.194,530.948,212.314,541.53,194.625L541.53,194.625z M235,234.094
		c2.273,0.012,4.945,0.233,7.062,0.75c4.404,1.072,9.764,1.688,9.688,3c-2.039,3.412-7.047,7.528-11.969,7.281
		c-4.921-0.248-7.767-3.199-9.406-10.595C230.878,234.258,232.727,234.082,235,234.094z M646.094,349.969
		c6.403-0.089,14.074,2.62,21.562,10.562c-3.6,10.371-34.842,15.697-36.937,0.344C630.086,356.234,636.734,350.096,646.094,349.969
		L646.094,349.969z"/>
	<path fill="none" stroke="#000000" stroke-width="1.8" stroke-linejoin="round" d="M267.26,324.74l4.737,6.892 M271.782,331.848
		c0,0,0,9.259,1.938,9.476 M269.413,346.276c0.215,0.216,4.954,8.185,4.954,8.185 M260.798,356.613c0.215,0,6.031,6.678,6.031,6.678
		 M271.88,358.11c0,0.215,5.501,10.565,5.933,10.565 M264.676,365.228c0,0,1.938,12.491,3.66,12.061 M256.535,388.117l5.556,8.34
		 M266.829,379.227c0,0,3.015,11.845,5.383,10.767 M274.576,372.115c0.216,0.215,5.605,7.975,7.112,6.897 M280.397,382.026
		l5.168,10.338 M271.782,389.994c0.215,0.433,4.307,12.277,4.307,12.277 M261.875,396.241c0,0,3.877,13.138,7.323,10.982
		 M260.368,413.685c0,0,0.215,6.891,3.661,7.321 M266.399,410.239c0,0.215,3.444,4.954,3.444,4.954 M276.242,402.044l2.862,4.533
		 M285.351,393.657l4.308,5.384 M265.365,331.903c0.215,5.815,9.437-2.048,13.098-7.002 M261.445,352.091
		c0,0,10.122-7.107,17.875-17.875 M258.214,369.105c7.107-1.938,20.184-17.753,22.768-26.152 M256.706,384.826
		c1.94,0.861,26.367-16.731,27.014-29.652 M256.061,398.394c0-0.215,22.33-5.693,31.591-30.244 M254.862,416.976
		c0,0,35.657-21.381,37.595-37.102 M533.227,452.88c0,0-2.299,18.453-20.819,21.252 M539.042,485.832
		c0.215-0.217,17.659-19.384,13.137-25.198 M579.53,467.309c0,0-0.215,13.353-11.199,22.613 M601.281,471.187
		c0,0,0.432,16.151-6.46,22.612 M621.309,480.877c0,0-7.727,15.126-10.525,16.634 M620.974,507.684c0,0,10.167,2.534,13.397-4.143
		 M623.61,529.625c0,0,9.398,1.696,13.705-7.348 M622.602,546.562c0,0,7.607,6.391,12.776-2.007 M513.428,422.115
		c0,0-0.862,32.735,45.226,39.41c51.472,14.215,75.807,6.677,78.822,64.395c-1.938,21.967-4.668,46.777-20.604,37.301
		 M464.552,452.27c0,0,7.323,13.136,16.152,12.275c11.629-3.446,15.936,3.66,15.936,3.66 M433.109,465.406
		c0,0,19.384,9.477,35.965-5.814 M435.263,451.838c1.722,22.612-26.059,35.535-37.043,33.382 M436.58,538.49
		c0.216,0,15.05-8.904,12.036-15.151 M407.05,525.278c0.431-0.432,24.982-2.801,29.505-11.631 M395.636,489.095
		c0-0.215,34.845,0.097,37.213,6.557 M441.938,468.421c0,0-34.027,58.147,28.858,58.147 M405.973,467.559
		c0,0-7.323,21.753-17.66,29.074 M369.793,460.023c0,0,12.636,24.449-0.071,36.509 M336.843,466.914
		c0.215,0.431,4.091,34.674-4.524,44.364 M320.476,467.991c0,0,1.291,21.751-5.169,29.504c-6.462,7.754,1.513,23.856,1.513,23.856
		 M238.32,531.808c0,0,4.624,8.114,11.086,5.312 M246.175,514.079c0,0,10.337,4.522,13.783,2.8 M257.374,477.467
		c0,0-15.291,4.307-9.476,22.396c8.828,7.108,17.443,6.03,17.443,6.03 M227.223,554.35c-0.215,0,1.724,14.215,11.631,3.446
		c6.891-14.429,28.643-55.132,33.597-69.131 M282.571,481.99c0,0-10.554-8.184-10.121,3.23c-0.217,7.105,3.229,8.829,3.229,8.829
		c0.431,5.169,4.954,12.49,8.614,5.814c1.508-6.461-1.076-9.261-1.076-9.261 M289.247,478.973
		c-9.476-0.646-14.644,20.245,3.662,7.11 M299.154,471.867c0,0-2.368,3.232-6.03-0.215c-1.938-3.444-8.829,15.507,3.23,16.152
		c2.153-5.6,8.83-7.107,8.83-7.107 M310.785,462.822c0,0-5.386,2.584-7.323,2.153c-6.461,1.508-5.17,16.584,3.014,15.722
		c2.799-3.229,5.815-7.753,5.815-7.753 M260.001,443.114c-0.216,0-21.372,33.269,11.794,42.099 M528.505,393.038
		c0,0-12.922,10.983-0.862,28.643c-40.058-0.646-61.592,17.875-63.314,30.365c-51.041-3.66-41.78,11.416-58.364,16.368
		c-22.182-18.521-54.702-8.184-52.548,10.337c-14.861-20.891-37.688-10.768-40.487-5.6c-2.8,5.169-1.723-25.628-1.723-25.628
		s-14.86,6.677-25.199,18.952c0.217-8.183,0-21.536,0-25.843c-12.418,2.512-24.407,2.654-37.257,2.369 M215.154,433.525
		c0,0,18.52,10.337,41.349-3.661 M213.646,396.268c0,0,14.43,12.92,41.565,8.829 M222.692,366.547c0,0,3.229,10.553,34.242,11.199
		 M233.195,342.142c0,0,11.679,14.283,27.399,12.13 M243.152,321.752c0,0,4.521,7.753,21.751,9.045 M253.272,299.139
		c0,0,9.046,9.907,19.384,8.184 M307.087,218.625c0,0,4.006-4.006,10.682-2.003 M304.196,239.764c0,0-12.463-0.444-11.573-5.34
		c0.892-5.563,13.13-9.568,13.13-9.568s16.243-10.458,18.69-14.02 M251.012,267.802l15.801,30.264l7.564-11.35l4.006,7.788
		l6.453-11.348l11.126,7.12l-4.228-13.796l9.345-0.667c0,0-2.448-6.677-10.904-8.012c2.227-1.78,10.014-6.897,10.014-6.897
		s-4.448-5.118-11.348-5.341c2.226-2.448,5.34-8.456,5.118-8.456s-6.898-1.558-6.898-1.558s15.8,5.118,28.037-2.003
		 M284.848,219.081c0.223,0.223-0.891,6.23-4.229,9.791 M223.877,235.77c0,0,9.774-2.69,17.088-1.165
		c7.245,1.488,16.958,4.058,16.958,4.058s11.57-1.558,15.354-4.228 M199.621,242.223c0,0-1.334,4.673-1.779,7.788
		c0,2.225-7.122,5.118-7.122,5.118 M204.073,232.654c0,0,6.229,7.788,6.452,12.238s-4.672,7.789-4.672,7.789 M139.764,285.836
		l-6.453-10.458l5.785-2.003 M256.296,430.096c-5.168-6.677,3.876-109.19,23.044-135.891c-6.676,48.241,15.506,97.559,21.105,97.343
		 M198.045,265.559c0,0,8.723,3.338,26.812-10.984 M249.3,289.25l12.976,0.161 M651.765,208.902c0,0-216.189,101.02-219.34,106.37
		c36.505-11.017,191.33-36.82,195.11-34.617c-9.126,2.203-197,45.314-205.811,55.701c46.89-1.574,145.08,15.104,160.49,31.153
		c-33.358-7.552-133.12-22.343-163.64-15.734c22.344,5.351,107.939,60.736,107.939,69.548
		c-12.901-12.272-115.81-54.757-119.899-50.665c23.6,14.161,56.96,66.714,56.958,79.617c-6.924-11.015-66.4-74.898-69.861-70.808
		c6.294,8.813,18.766,84.223,12.39,87.718c0-9.126-23.09-75.129-24.978-77.018c-4.721,1.258-34.152,80.528-28.321,87.899
		c-3.775-26.434,0.628-81.604,7.866-79.402c-12.901,1.888-54.078,56.18-49.673,64.677c1.259-13.531,3.1-22.507,26.386-67.509
		c-25.805,1.572-79.302,35.246-88.43,47.204c7.239-21.397,52.555-57.59,72.381-60.106 M414.649,304.183
		c22.85-12.681,93.459-38.558,140.56-57.543 M370.299,372.419c0,0,15.576-0.222,31.153-42.501
		c15.35-57.85,137.069-122.38,139.52-134.399 M164.302,430.588c0,0-3.614,7.703-8.065,9.93 M181.761,442.261
		c0,0-4.829,9.383-5.941,13.832 M198.469,446.851c0,0,4.053,12.803,0.714,18.812 M151.944,413.61
		c-12.238,6.898,6.964,50.494,65.041,54.722 M207.639,444.745c0,0-1.557,7.788,9.347,23.365
		c-3.115,17.355,13.194,30.996,19.648,33.221 M202.964,288.321c0-0.224,1.78-4.673,1.78-4.673l1.983,5.145l3.193-0.084l2.107-5.157
		l1.729,5.177h3.174l1.957-5.748l2.957,5.442l2.511,0.128l1.978-6.63l4.077,4.749l1.48-0.573l1.271-6.632l4.027,4.638l1.155-0.678
		l1.868-6.535l3.346,4.859l1.685-0.549l1.563-5.492l3.109,5.047 M199.384,288.904l24.274-0.361
		c7.723-0.114,20.441-10.818,34.684-7.48 M148.222,340.835c0,0,4.006,8.68,9.569,3.783 M138.877,346.622
		c0,0-7.789,20.917,1.558,25.812 M127.75,323.479c0,0,0,4.895,10.236-2.67 M95.913,433.399c0,0,8.233,2.448,6.898,8.679
		 M99.023,337.268c0,0,5.118,2.447,10.014-5.117 M153.319,578.041c8.01-0.444,9.735,3.172,17.023,3.172
		c8.396,0.257,16.576-3.172,27.259-6.064 M266.359,594.508c-0.223,0-3.783,7.564-0.667,11.347 M152.202,595.175
		c0,0,12.686-10.46,19.36-4.005c6.454,2.226,10.013,1.779,10.013,1.779 M158.886,565.36c0,0,3.114,8.01-7.345,6.897
		 M148.427,583.829c0,0,6.675,4.229-0.891,9.791 M152.432,601.186c0,0,9.123,1.336,3.781,8.678 M447.123,545.749
		c0,0,24.776,2.564,25.915,4.415c2.849-2.991,24.972-20.911-2.225-23.473C466.258,545.345,447.55,546.034,447.123,545.749
		L447.123,545.749z M438.295,558.137c9.255,7.403,5.463,11.841,34.513-7.666 M425.052,567.394c0,0,13.669,14.667,23.638-3.134
		 M398.994,572.662l-18.511,9.683 M347.162,596.015c0,0,11.249-9.684,16.518-4.558c5.269,5.127,27.624-4.412,27.624-4.412
		 M355.563,554.007c0,0,3.846,7.689-3.561,8.687 M340.897,578.073c0,0,3.9,7.23-3.646,9.224 M349.583,597.724
		c0,0,11.677,0.569,7.547,9.396 M458.8,596.157c0,0-6.408,5.411-1.708,11.535 M551.783,557.284c0,0,7.403,3.56-1.424,9.684
		 M542.955,579.782c0,0,5.553,5.839,1.851,10.68 M558.476,602.137c0,0,7.688,2.136,6.836,8.544 M666.121,596.442
		c0,0-6.408,4.698-2.99,10.822 M551.992,409.293c15.38-1.852,37.448,32.322,48.698,39.016 M667.962,360.884
		c0,0,7.79,6.799,0.937,23.205 M682.403,334.723c2.167,1.686,10.539,6.154,16.068,16.496 M703.784,283.56
		c0,0.143-10.822,29.191-10.822,29.191 M715.887,282.136c0,0-2.136,25.915-5.268,31.184 M667.662,360.543
		c-3.601,10.371-34.84,15.678-36.935,0.325C629.661,353.053,649.229,340.997,667.662,360.543z"/>
	<path stroke="#000000" stroke-width="1.8" stroke-linejoin="round" d="M234.76,234.178l12.021,2.225
		C246.78,236.403,238.32,247.752,234.76,234.178z"/>
</g>
</svg>
